<svg width="1450" height="1399" viewBox="0 0 1450 1399" fill="none" xmlns="http://www.w3.org/2000/svg">
<path d="M897.356 752.105H1346.27V710.244H897.356V752.105Z" fill="#D4D6D3"/>
<path d="M1199.6 1176.4H1309.24V1141.49H1199.6V1176.4Z" fill="#E7E8E5"/>
<path d="M932.71 832.068H1042.35V797.164H932.71V832.068Z" fill="#E7E8E5"/>
<path d="M1260.76 1220.41L1260.02 1185.51L1260.01 1184.78L1260.76 1184.77L1288.17 1184.42L1315.58 1184.16L1370.4 1183.95L1371.96 1183.94L1371.96 1185.51L1371.82 1220.41L1371.82 1221.84L1370.4 1221.83L1342.75 1221.7L1315.2 1221.33L1260.76 1220.41ZM1260.76 1220.41L1315.96 1219.5L1343.24 1219.13L1370.4 1218.99L1368.98 1220.41L1368.84 1185.51L1370.4 1187.06L1315.58 1186.85L1288.17 1186.59L1260.76 1186.25L1261.5 1185.51L1260.76 1220.41" fill="#E7E8E5"/>
<path d="M564.743 369.39L564.001 334.486L563.985 333.753L564.743 333.744L592.152 333.403L619.561 333.138L674.381 332.926L675.947 332.92L675.941 334.486L675.803 369.39L675.797 370.822L674.381 370.813L646.726 370.682L619.183 370.304L564.743 369.39ZM564.743 369.39L619.941 368.479L647.219 368.102L674.381 367.971L672.959 369.39L672.825 334.486L674.381 336.043L619.561 335.83L592.152 335.565L564.743 335.225L565.482 334.486L564.743 369.39" fill="#E7E8E5"/>
<path d="M625.903 413.407L625.161 378.503L625.146 377.77L625.903 377.76L653.312 377.42L680.721 377.155L735.541 376.943L737.104 376.937L737.101 378.503L736.963 413.407L736.957 414.836L735.541 414.83L707.886 414.696L680.343 414.321L625.903 413.407ZM625.903 413.407L681.101 412.496L708.376 412.119L735.541 411.988L734.119 413.407L733.985 378.503L735.541 380.059L680.721 379.847L653.312 379.582L625.903 379.242L626.642 378.503L625.903 413.407" fill="#E7E8E5"/>
<path d="M686.821 369.391H796.462V334.486H686.821V369.391" fill="#E7E8E5"/>
<path d="M80.3259 1220.41H189.965V1185.51H80.3259V1220.41Z" fill="#E7E8E5"/>
<path d="M141.485 142.457H251.126V107.55H141.485V142.457Z" fill="#E7E8E5"/>
<path d="M80.326 186.474L79.5853 151.566L79.5695 150.836L80.326 150.827L107.736 150.483L135.145 150.221L189.965 150.009L191.529 150.003L191.522 151.566L191.387 186.474L191.381 187.902L189.965 187.893L162.309 187.762L134.767 187.388L80.326 186.474ZM80.326 186.474L135.524 185.56L162.801 185.185L189.965 185.051L188.544 186.474L188.407 151.566L189.965 153.123L135.145 152.91L107.736 152.649L80.326 152.305L81.0654 151.566L80.326 186.474" fill="#E7E8E5"/>
<path d="M1199.6 142.456L1198.86 107.548L1198.85 106.818L1199.6 106.809L1227.01 106.469L1254.42 106.204L1309.24 105.992L1310.8 105.986L1310.8 107.548L1310.66 142.456L1310.66 143.885L1309.24 143.879L1281.59 143.744L1254.04 143.37L1199.6 142.456ZM1199.6 142.456L1254.8 141.542L1282.08 141.168L1309.24 141.034L1307.82 142.456L1307.68 107.548L1309.24 109.108L1254.42 108.896L1227.01 108.631L1199.6 108.288L1200.34 107.548L1199.6 142.456" fill="#E7E8E5"/>
<path d="M1304.85 695.659H938.804V116.59H1304.85V695.659ZM924.219 102V710.246H1319.44V102H924.219Z" fill="#E7E8E5"/>
<path d="M938.804 695.66H1304.85V116.591H938.804V695.66Z" fill="white"/>
<path d="M938.789 413.408H1304.84V398.824H938.789V413.408" fill="#E7E8E5"/>
<path d="M1291.33 130.083H952.292V477.717H1291.33V130.083ZM938.789 116.575H1304.84V491.225H938.789V116.575Z" fill="#D4D6D3"/>
<path d="M1180.72 477.717H1188.01V116.575H1180.72V477.717Z" fill="#D4D6D3"/>
<path d="M1055.62 477.717H1062.91V116.575H1055.62V477.717Z" fill="#D4D6D3"/>
<path d="M511.95 695.659H145.903V116.59H511.95V695.659ZM131.318 102V710.246H526.535V102H131.318Z" fill="#E7E8E5"/>
<path d="M145.902 695.66H511.949V116.591H145.902V695.66Z" fill="white"/>
<path d="M145.888 413.408H511.94V398.824H145.888V413.408Z" fill="#E7E8E5"/>
<path d="M104.454 752.105H553.373V710.244H104.454V752.105Z" fill="#D4D6D3"/>
<path d="M498.434 130.083H159.391V477.717H498.434V130.083ZM145.888 116.575H511.94V491.225H145.888V116.575" fill="#D4D6D3"/>
<path d="M387.819 477.717H395.111V116.575H387.819V477.717Z" fill="#D4D6D3"/>
<path d="M262.716 477.717H270.006V116.575H262.716V477.717Z" fill="#D4D6D3"/>
<path d="M75 1355.44L237.591 1354.69L400.181 1354.41L725.363 1353.89L1050.54 1354.41L1213.14 1354.68L1375.73 1355.44L1213.14 1356.21L1050.54 1356.48L725.363 1357L400.181 1356.48L237.591 1356.2L75 1355.44Z" fill="#17282F"/>
<path d="M1373.81 953.451H978.094V897.272H1373.81V953.451Z" fill="#33535F"/>
<path d="M1364.37 971.697H987.531V953.451H1364.37V971.697Z" fill="#33535F"/>
<path d="M1364.37 959.49H987.531V953.451H1364.37V959.49Z" fill="#17282F"/>
<path d="M991.242 1357H976.173L1020.03 971.697H1058.49L991.242 1357Z" fill="#33535F"/>
<path d="M1058.48 971.705L1053.98 997.484H1017.11L1020.04 971.705H1058.48" fill="#17282F"/>
<path d="M1360.66 1357H1375.73L1331.87 971.697H1293.41L1360.66 1357Z" fill="#33535F"/>
<path d="M1293.42 971.705L1297.92 997.484H1334.79L1331.87 971.705H1293.42Z" fill="#17282F"/>
<path d="M1272.95 1124.95C1270.29 1136.24 1267.49 1147.35 1266.94 1158.94C1267.25 1159.5 1267.19 1161.61 1266.85 1161.03C1266.78 1162.9 1263.94 1162.56 1263.94 1160.72C1263.97 1159.52 1263.99 1158.32 1264.05 1157.15C1257.41 1148.91 1247.78 1143.68 1239.98 1136.52C1233.68 1130.71 1229.17 1123.8 1226.79 1115.51C1220.33 1093.23 1226.39 1069.62 1218.61 1047.39C1211.91 1028.23 1199.89 1011.57 1189.71 994.205C1178.98 975.844 1171.06 956.549 1170.26 935.043C1169.63 918.575 1171.6 896.632 1184.13 884.295C1197.42 871.205 1213.9 881.013 1224.08 892.689C1253.59 926.561 1267.24 969.367 1272.76 1013.14C1275.8 1037.36 1278.96 1061.73 1278.23 1086.19C1277.82 1099.33 1275.93 1112.18 1272.95 1124.95" fill="#FABB1E"/>
<path d="M1267.07 1167.83C1268.59 1144.93 1268.5 1122 1266.26 1099.2L1266.37 1098.95C1266.75 1080.4 1268.22 1061.92 1267.49 1043.35C1266.7 1023.18 1263.75 1003.4 1259.32 983.715L1258.96 983.774C1262.6 1002.97 1264.72 1022.57 1265.42 1042.09C1265.79 1052.57 1265.72 1063.06 1265.17 1073.54C1264.99 1076.94 1264.67 1080.38 1264.44 1083.81L1264.44 1083.78C1256.96 1031.58 1237.7 982.049 1209.26 937.726C1208.88 937.124 1207.81 937.767 1208.19 938.385C1228.66 971.829 1243.76 1008.56 1253.1 1046.68C1238.91 1020.38 1217.48 998.76 1201.58 973.495L1201.34 973.642C1215.62 1001.77 1239.22 1023.95 1254.26 1051.67C1256.87 1062.96 1259.01 1074.37 1260.6 1085.84C1262.78 1101.59 1263.8 1117.44 1264.02 1133.31C1255.38 1117.15 1246.4 1101.69 1239.33 1084.6C1239.15 1084.15 1238.49 1084.46 1238.64 1084.91C1244.66 1102.66 1252.75 1121.79 1264.06 1136.92C1264.13 1148.16 1263.79 1159.4 1263.13 1170.62C1261.37 1200.59 1256.25 1230.15 1253.88 1260.02C1253.82 1260.91 1255.08 1261.02 1255.25 1260.16C1261.48 1230.02 1265.02 1198.52 1267.07 1167.83" fill="#17282F"/>
<path d="M1235.26 936.765L1234.93 936.915C1240.4 952.048 1243.49 967.38 1247.44 982.893C1247.63 983.602 1248.65 983.449 1248.57 982.709C1246.96 966.971 1241.35 951.271 1235.26 936.765" fill="#17282F"/>
<path d="M1374.18 1000.19C1370.64 1009.08 1366.24 1017.69 1361.6 1026.05C1351.75 1043.94 1341.47 1060.34 1339.62 1081.18C1338.79 1090.48 1338.49 1099.83 1335.66 1108.8C1333.21 1116.55 1329.23 1123.72 1324.65 1130.41C1313.98 1145.97 1300.63 1159.38 1290.74 1175.52C1280.44 1192.3 1272.85 1210.76 1268.2 1229.88C1267.96 1230.93 1266.31 1230.65 1266.55 1229.6L1266.61 1229.36L1266.51 1229.14C1264.95 1184.46 1268.51 1139.43 1282.14 1096.63C1288.09 1077.91 1295.44 1059.3 1303.78 1041.51C1311.08 1025.99 1320.18 1011.07 1332.99 999.471C1341.3 991.981 1359.33 977.784 1371.17 985.295C1376.85 988.911 1376.42 994.613 1374.18 1000.19" fill="#FABB1E"/>
<path d="M1329.29 1101.48C1321.63 1114.58 1312.55 1126.77 1303.34 1138.8C1299.01 1144.45 1294.63 1150.05 1290.31 1155.71C1288.27 1158.38 1285.99 1161.04 1284.11 1163.91C1285.29 1159.21 1286.44 1154.5 1287.64 1149.81C1293.4 1127.24 1298.94 1104.46 1307.53 1082.76C1315.92 1061.54 1327.08 1041.62 1338.54 1021.94C1338.84 1021.43 1338.01 1021.05 1337.7 1021.55C1328.26 1037.08 1318.68 1052.58 1310.75 1068.95C1306.32 1078.1 1302.59 1087.5 1299.31 1097.08C1303.17 1076.55 1307.79 1056.85 1314.54 1036.98L1314.27 1036.86C1306.04 1056.34 1300.12 1078.25 1298.47 1099.37L1298.5 1099.47C1296.56 1105.27 1294.78 1111.13 1293.12 1117.03C1286.09 1142.03 1279.91 1167.29 1274.18 1192.63C1274.28 1175.9 1275.33 1159.46 1278.49 1142.95C1278.56 1142.57 1277.99 1142.48 1277.9 1142.85C1273.75 1159.86 1271.88 1177.75 1273.59 1195.23C1271.43 1204.86 1269.32 1214.52 1267.26 1224.17C1262.87 1244.76 1257.47 1265.73 1254.91 1286.64C1254.84 1287.18 1255.6 1287.29 1255.73 1286.78C1258.8 1275.51 1260.65 1263.82 1263.15 1252.41C1265.67 1240.96 1268.25 1229.53 1270.92 1218.11C1274.8 1201.49 1278.86 1184.91 1283 1168.35C1285.77 1162.28 1291.12 1156.89 1295.12 1151.79C1299.52 1146.2 1303.92 1140.61 1308.2 1134.94C1316.16 1124.36 1323.48 1113.37 1329.69 1101.67L1329.29 1101.48" fill="#17282F"/>
<path d="M1331.2 1082.37C1321.51 1094.81 1312.72 1108.58 1305.8 1122.75L1306.11 1122.94C1314.66 1109.54 1323.06 1096.04 1331.6 1082.62L1331.2 1082.37Z" fill="#17282F"/>
<path d="M1141.06 1042.55C1146.85 1052.53 1153.46 1064.5 1150.97 1076.47C1149.4 1084.05 1143.85 1090.21 1142.85 1097.94C1140.61 1115.01 1157.61 1126.28 1169.91 1134.35C1200.58 1154.48 1242.65 1172.42 1248.22 1213.53C1248.43 1214.99 1250.95 1214.62 1250.77 1213.2L1250.71 1212.93L1250.86 1212.68C1254.83 1191.86 1254.74 1170.63 1250.28 1149.9C1245.71 1128.71 1236.46 1109.67 1225.55 1091.06C1207.1 1059.56 1187.55 1027.3 1159.64 1003.17C1151.91 996.505 1136.09 984.498 1129.94 999.565C1123.97 1014.21 1133.97 1030.4 1141.06 1042.55" fill="#FABB1E"/>
<path d="M1169.13 1109.33C1189.47 1131.36 1221.8 1143.7 1239.3 1168.36C1228.93 1130.56 1211.76 1096.57 1185.37 1067.04C1184.69 1066.28 1185.75 1065.2 1186.49 1065.91C1205.82 1084.49 1220.12 1106.21 1230.56 1129.76C1225.87 1112.94 1219.3 1097.03 1211.59 1081.21C1211.29 1080.62 1212.14 1080.1 1212.49 1080.69C1222.32 1097.45 1228.85 1116.27 1232.94 1135.26C1256 1191.11 1258.14 1256.61 1253.31 1315.48C1253.24 1316.32 1251.95 1316.35 1251.98 1315.48C1253.3 1269.09 1252.56 1221.89 1241.44 1176.58C1241.21 1175.63 1240.95 1174.7 1240.71 1173.76C1221.67 1147.21 1189.48 1134.9 1168.78 1109.69L1169.13 1109.33" fill="#17282F"/>
<path d="M1164.42 1090.42C1175.09 1100.22 1185.6 1110.24 1196.29 1120.03L1196.14 1120.23C1184.5 1112.36 1172.68 1101.95 1163.78 1091.06C1163.42 1090.62 1163.98 1090.02 1164.42 1090.42Z" fill="#17282F"/>
<path d="M1162.73 1047.98C1172.43 1063.52 1182.59 1078.1 1194.67 1091.92L1194.4 1092.19C1181.44 1079.7 1169.92 1064.59 1162.16 1048.31C1161.98 1047.93 1162.51 1047.61 1162.73 1047.98Z" fill="#17282F"/>
<path d="M1210.79 1357H1304.3L1291.69 1231.16H1225.19L1210.79 1357Z" fill="#33535F"/>
<path d="M1222.85 1251.62H1293.75L1291.7 1231.16H1225.19L1222.85 1251.62" fill="#17282F"/>
<path d="M1213.72 1237.31H1301.37V1217.22H1213.72V1237.31Z" fill="#33535F"/>
<path d="M196.47 498.976V1340.15H179.624V498.976H196.47Z" fill="#17282F"/>
<path d="M487.123 213.417L86.9125 613.756L75 601.842L475.213 201.5L487.123 213.417Z" fill="#17282F"/>
<path d="M279.348 1340.15V1357H96.7469V1340.15H279.348Z" fill="#17282F"/>
<path d="M488.825 263.607L545.265 210.575L492.122 167.389L449.853 207.153L488.825 263.607" fill="#FABB1E"/>
<path d="M545.258 210.572L530.43 198.522L545.264 210.566L545.258 210.572Z" fill="#E0E1DE"/>
<path d="M488.829 263.596L473.33 241.148L521.71 191.438L530.43 198.519L545.258 210.57L488.829 263.596Z" fill="#F4AC12"/>
<path d="M482.984 352.178L635.312 209.001L562.557 169.807L448.403 277.106L482.984 352.178" fill="#FABB1E"/>
<path d="M1068.22 792.098H1054.97C1041.46 782.596 1026.28 768.555 1023.5 752.105H1059.93C1057.27 767.74 1062.75 782.221 1068.22 792.098" fill="#E5E6E4"/>
<path d="M1093.23 710.244H1069.1C1065.37 707.449 1062.38 704.645 1060.52 701.796C1063.35 699.731 1066.17 697.688 1068.89 695.66H1104.33C1101.28 700.773 1097.41 705.618 1093.23 710.244Z" fill="#DBDCD9"/>
<path d="M1104.33 695.66H1068.89C1082.2 685.718 1093.24 676.085 1093.24 665.725C1093.24 639.596 1062.63 624.226 1062.63 624.226C1062.63 624.226 1110.97 640.747 1110.97 673.795C1110.97 681.641 1108.36 688.888 1104.33 695.66Z" fill="#E5E5E3"/>
<path d="M1059.93 752.105H1023.5C1023.21 750.365 1023.05 748.596 1023.05 746.805C1023.05 734.53 1032.51 723.864 1044.48 713.985C1049.46 722.043 1058.67 729.373 1068.05 736.427C1064.12 741.162 1061.23 745.745 1060.28 750.262C1060.15 750.876 1060.03 751.494 1059.93 752.105V752.105ZM1084.04 719.806C1078.52 716.593 1073.34 713.423 1069.1 710.244H1093.23C1090.26 713.536 1087.14 716.714 1084.04 719.806" fill="#D4D6D3"/>
<path d="M1101.54 792.098H1088.89C1094.55 785.281 1099.34 776.385 1097.62 766.833C1096.71 761.791 1092.99 756.931 1087.85 752.105H1126.87C1127.99 754.42 1128.61 756.81 1128.61 759.28C1128.61 772.429 1115.07 783.909 1101.54 792.098Z" fill="#E5E6E4"/>
<path d="M1049.17 710.244H1042.51C1041.34 707.546 1040.69 704.76 1040.69 701.878C1040.69 699.713 1041.03 697.641 1041.64 695.66H1058.43C1058.46 697.735 1059.2 699.778 1060.52 701.796C1056.71 704.567 1052.87 707.374 1049.17 710.244Z" fill="#DBDCD9"/>
<path d="M1058.43 695.66H1041.64C1048.4 673.82 1089.04 662.902 1089.04 662.902C1089.04 662.902 1058.43 674.987 1058.43 695.532C1058.43 695.576 1058.43 695.616 1058.43 695.66" fill="#E5E5E3"/>
<path d="M1126.87 752.105H1087.85C1082.31 746.908 1075.13 741.746 1068.05 736.427C1072.46 731.124 1078.2 725.627 1084.04 719.806C1100.9 729.623 1120.93 739.858 1126.87 752.105V752.105ZM1044.48 713.985C1043.72 712.756 1043.06 711.511 1042.51 710.244H1049.17C1047.58 711.477 1046.01 712.728 1044.48 713.985Z" fill="#D4D6D3"/>
<path d="M1069.1 710.244H1049.17C1052.87 707.374 1056.71 704.567 1060.52 701.796C1062.38 704.645 1065.37 707.449 1069.1 710.244Z" fill="#D6D8D5"/>
<path d="M1068.05 736.424C1058.67 729.371 1049.46 722.04 1044.48 713.982C1046.01 712.725 1047.58 711.474 1049.17 710.242H1069.1C1073.34 713.42 1078.52 716.59 1084.04 719.803C1078.2 725.624 1072.46 731.121 1068.05 736.424" fill="#D4D6D3"/>
<path d="M1050.86 897.273H1102.34V889.235H1050.86V897.273Z" fill="#FABB1E"/>
<path d="M1102.34 894.535H1050.86V890.236C1054.13 891.004 1057.16 891.2 1059.76 891.2C1069.02 891.2 1068.18 891.2 1076.6 891.2C1085.02 891.2 1084.13 891.2 1093.44 891.2C1096.03 891.2 1099.07 891.004 1102.34 890.236V894.535" fill="#F4AC12"/>
<path d="M1163.44 867.625C1157.35 876.185 1146.58 882.312 1134.45 880.029C1132.73 879.701 1131 879.218 1129.23 878.528C1126.83 877.598 1124.42 876.351 1121.96 874.7L1128.49 864.999C1129.82 865.925 1131.11 866.643 1132.36 867.195C1144.61 872.754 1152.38 863.083 1153.9 860.878C1160.96 850.958 1163.48 828.301 1156.33 819.585C1155.86 818.939 1153.8 817.919 1145.51 819.681C1143.98 820.028 1142.24 820.411 1140.28 820.954C1138.1 821.572 1136.81 821.924 1135.57 821.968L1135.36 816.144L1134.79 810.332C1135.33 810.235 1136.16 809.998 1137.25 809.686C1140.38 808.85 1144.59 807.705 1148.96 807.259C1155.06 806.626 1161.45 807.356 1165.37 812.176C1176.99 826.407 1172.28 855.191 1163.44 867.625" fill="#FABB1E"/>
<path d="M1129.23 878.527C1127.2 877.741 1125.16 876.727 1123.09 875.436C1124.87 872.922 1126.59 870.017 1128.21 866.654C1128.42 866.199 1128.64 865.731 1128.85 865.241C1130.05 866.049 1131.23 866.692 1132.36 867.194L1129.23 878.527" fill="#F4AC12"/>
<path d="M1140.71 820.834C1140.87 819.923 1141.03 819.022 1141.18 818.129C1141.51 816.195 1141.83 814.299 1142.15 812.486C1142.23 811.962 1142.31 811.478 1142.39 810.995C1142.54 810.078 1142.7 809.164 1142.83 808.284C1144.77 807.854 1146.84 807.473 1148.96 807.258L1145.51 819.68C1144.09 820.001 1142.49 820.354 1140.71 820.834Z" fill="#F4AC12"/>
<path d="M1008.11 792.097C1008.11 792.097 1008.55 795.924 1009.44 801.97C1009.6 802.897 1009.72 803.904 1009.88 804.912C1010.48 809.064 1011.29 813.98 1012.21 819.259C1012.25 819.542 1012.34 819.864 1012.38 820.188C1013.75 827.762 1015.4 836.026 1017.33 843.803C1017.41 844.168 1017.53 844.489 1017.62 844.811C1018.14 846.907 1018.7 848.963 1019.27 850.937C1019.83 852.912 1020.43 854.846 1021.04 856.702C1022.29 860.408 1023.58 863.793 1024.95 866.657C1035.62 888.743 1050.53 891.201 1059.76 891.201C1069.02 891.201 1068.18 891.201 1076.6 891.201C1085.02 891.201 1084.13 891.201 1093.44 891.201C1102.67 891.201 1117.57 888.743 1128.21 866.657C1128.53 865.97 1128.85 865.247 1129.18 864.479C1129.42 863.955 1129.66 863.391 1129.86 862.826C1130.1 862.261 1130.34 861.7 1130.55 861.095C1130.71 860.692 1130.87 860.246 1131.03 859.844C1133.09 854.204 1134.94 847.553 1136.55 840.702C1136.63 840.418 1136.71 840.178 1136.75 839.894L1136.83 839.573C1137.48 836.831 1138.08 834.051 1138.65 831.309C1139.61 826.795 1140.46 822.362 1141.18 818.132C1141.51 816.198 1141.83 814.302 1142.15 812.489C1142.23 811.965 1142.31 811.482 1142.39 810.998C1142.59 809.788 1142.79 808.58 1142.96 807.451C1143.12 806.322 1143.28 805.236 1143.44 804.188C1143.6 803.14 1143.72 802.132 1143.88 801.206C1144.69 795.603 1145.09 792.097 1145.09 792.097H1008.11" fill="#FABB1E"/>
<path d="M1062.25 869.008C1062.09 869.008 1061.93 869.005 1061.77 868.995C1057.74 868.874 1053.87 867.545 1050.49 865.327C1047.11 863.112 1044.13 860.211 1041.1 857.347C1038.12 854.486 1034.98 851.585 1031.43 849.286C1027.93 846.909 1023.94 845.259 1019.87 844.289C1019.02 844.089 1018.18 843.927 1017.33 843.805C1015.4 836.028 1013.75 827.764 1012.38 820.19C1013.59 819.142 1014.79 818.134 1016.04 817.167C1018.51 815.202 1021.53 813.489 1024.54 813.489C1025.37 813.489 1026.19 813.617 1027 813.901C1030.71 815.23 1033.33 818.699 1035.78 821.922C1038.28 825.228 1040.58 828.732 1043.44 831.876C1044.81 833.489 1046.46 834.939 1048.24 836.19C1050.09 837.276 1052.14 838.405 1054.44 838.446C1054.69 838.502 1054.95 838.524 1055.21 838.524C1056.09 838.524 1056.99 838.268 1057.86 838.205C1058.91 837.841 1060 837.479 1060.97 836.955C1062.86 835.866 1064.59 834.537 1066.12 833.086C1069.22 830.145 1071.92 826.919 1074.67 823.775C1077.36 820.633 1080.06 817.529 1083.21 814.99C1085.94 812.788 1089.18 811.022 1092.56 811.022C1093.01 811.022 1093.46 811.053 1093.92 811.122C1097.91 811.646 1101.66 813.337 1104.8 815.876C1107.94 818.415 1110.6 821.6 1113.34 824.745C1116.08 827.886 1118.9 831.031 1122.21 833.692C1125.47 836.39 1129.26 838.446 1133.25 839.775C1134.33 840.14 1135.46 840.42 1136.55 840.704C1134.94 847.555 1133.09 854.206 1131.03 859.846C1130.64 859.911 1130.26 859.942 1129.87 859.942C1129.29 859.942 1128.71 859.871 1128.13 859.724C1124.3 858.801 1121.36 855.575 1118.58 852.633C1115.8 849.57 1113.14 846.304 1110 843.443C1108.47 841.952 1106.73 840.704 1104.84 839.616C1103.06 838.779 1101.11 837.975 1099.06 837.975C1098.84 837.975 1098.62 837.984 1098.39 838.003C1098.25 837.981 1098.1 837.972 1097.95 837.972C1096.98 837.972 1096.03 838.393 1095.05 838.567C1094.04 839.01 1093 839.494 1092.07 840.099C1090.3 841.347 1088.73 842.879 1087.31 844.451C1084.5 847.676 1082.12 851.142 1079.74 854.527C1077.36 857.912 1074.95 861.259 1072.05 864.119C1069.34 866.787 1065.97 869.008 1062.25 869.008" fill="#F4AC12"/>
<path d="M1012.21 819.258C1012.25 819.541 1012.34 819.863 1012.38 820.187C1013.59 819.139 1014.79 818.131 1016.04 817.164C1019.18 814.666 1023.21 812.569 1027 813.898C1030.71 815.227 1033.33 818.696 1035.78 821.918C1038.28 825.222 1040.58 828.728 1043.44 831.873C1044.81 833.486 1046.46 834.936 1048.24 836.187C1050.09 837.273 1052.14 838.402 1054.44 838.443C1055.57 838.686 1056.74 838.28 1057.86 838.202C1058.91 837.837 1060 837.476 1060.97 836.952C1062.86 835.863 1064.59 834.534 1066.12 833.083C1069.22 830.142 1071.92 826.916 1074.67 823.771C1077.36 820.63 1080.06 817.526 1083.21 814.987C1086.31 812.488 1090.06 810.554 1093.92 811.119C1097.91 811.643 1101.66 813.334 1104.8 815.873C1107.94 818.412 1110.6 821.597 1113.34 824.742C1116.08 827.883 1118.9 831.028 1122.21 833.688C1125.47 836.387 1129.26 838.443 1133.25 839.772C1134.33 840.137 1135.46 840.417 1136.55 840.701C1136.63 840.417 1136.71 840.177 1136.75 839.893C1135.7 839.572 1134.62 839.251 1133.57 838.845C1125.67 836.187 1119.67 830.182 1114.55 823.731C1111.89 820.549 1109.23 817.242 1105.89 814.503C1102.59 811.802 1098.48 809.908 1094.21 809.303C1089.61 808.62 1085.3 810.875 1082.04 813.496C1078.65 816.157 1075.87 819.339 1073.13 822.483C1070.39 825.628 1067.77 828.85 1064.83 831.673C1061.89 834.372 1058.43 837.033 1054.6 836.59C1050.73 836.387 1047.39 833.726 1044.73 830.706C1041.99 827.683 1039.61 824.255 1037.03 820.951C1034.41 817.766 1031.68 814.141 1027.36 812.691C1025.23 811.924 1022.89 812.285 1020.88 813.053C1018.86 813.817 1017.09 815.068 1015.44 816.397C1014.31 817.323 1013.26 818.253 1012.21 819.258" fill="white"/>
<path d="M1017.33 843.803C1017.41 844.168 1017.53 844.489 1017.62 844.81C1018.3 844.932 1018.98 845.094 1019.63 845.253C1027.73 847.15 1034.29 852.509 1040.06 858.433C1043 861.375 1045.94 864.398 1049.52 866.778C1053.11 869.155 1057.34 870.646 1061.69 870.805C1066.28 871.089 1070.39 868.428 1073.38 865.487C1076.48 862.504 1078.94 859.079 1081.39 855.694C1083.77 852.266 1086.07 848.8 1088.77 845.74C1091.38 842.758 1094.61 839.772 1098.44 839.813C1102.3 839.654 1105.89 841.99 1108.83 844.732C1111.85 847.471 1114.55 850.656 1117.45 853.679C1120.35 856.58 1123.41 859.924 1127.85 860.973C1128.74 861.175 1129.66 861.216 1130.55 861.094C1130.71 860.692 1130.87 860.246 1131.03 859.843C1130.06 860.006 1129.1 859.965 1128.13 859.725C1124.3 858.795 1121.36 855.573 1118.58 852.631C1115.8 849.568 1113.14 846.301 1110 843.441C1108.47 841.95 1106.74 840.702 1104.84 839.613C1102.87 838.687 1100.69 837.798 1098.39 838C1097.27 837.838 1096.18 838.362 1095.05 838.565C1094.04 839.008 1093 839.492 1092.07 840.097C1090.3 841.345 1088.72 842.876 1087.31 844.448C1084.5 847.674 1082.12 851.14 1079.74 854.525C1077.36 857.909 1074.95 861.256 1072.05 864.117C1069.22 866.897 1065.68 869.196 1061.77 868.993C1057.74 868.871 1053.87 867.542 1050.49 865.324C1047.11 863.109 1044.13 860.208 1041.1 857.345C1038.12 854.484 1034.98 851.583 1031.43 849.284C1027.93 846.907 1023.94 845.253 1019.87 844.286C1019.03 844.087 1018.18 843.924 1017.33 843.803" fill="white"/>
<path d="M472.416 1163.38L234.301 1355.45H247.717L522.721 1163.38H472.416" fill="#BEBFBD"/>
<path d="M494.785 1163.38L377.126 1355.45H390.539L534.749 1163.38H494.785Z" fill="#BEBFBD"/>
<path d="M552.471 1163.38L670.13 1355.45H656.718L512.508 1163.38H552.471" fill="#BEBFBD"/>
<path d="M573.026 1163.38L811.138 1355.45H797.725L522.721 1163.38H573.026Z" fill="#BEBFBD"/>
<path d="M970.439 1092.93V1036.74L643.455 1023.32L470.738 562.037H75L215.017 1092.93L549.549 1186.87H570.509L970.439 1092.93Z" fill="#33535F"/>
<path d="M75 562.037H120.275L266.161 1045.96L562.127 1129.84L970.439 1036.74V1092.93L570.509 1186.87H549.549L215.017 1092.93L75 562.037Z" fill="#273E47"/>
<path d="M1210.91 1353.52C1200.36 1353.76 926.717 1269.15 918.337 1259.34C917.43 1258.26 921.705 1217.72 928.769 1185.54C929.099 1184.01 831.595 1056.21 831.595 1056.21L1007.89 987.617L1092.22 1162.41L1114.16 1207.87C1114.16 1207.87 1205.44 1299.66 1213.53 1311.42C1221.51 1323.19 1221.46 1353.28 1210.91 1353.52" fill="#E7E8E5"/>
<path d="M1218.61 1355.05C1207.61 1355.35 921.945 1268.12 913.151 1257.91C909.795 1254.05 914.904 1236.37 928.769 1185.54L1116.06 1208.1C1116.06 1208.1 1212.72 1298.9 1221.16 1311.13C1229.54 1323.35 1229.61 1354.76 1218.61 1355.05" fill="#FABB1E"/>
<path d="M1218.01 1342.38C1170.48 1326.58 977.29 1267.35 929.109 1255.34C928.719 1255.24 928.638 1255.51 929.018 1255.64C975.784 1272.33 1169.44 1330 1217.77 1343.16C1218.79 1343.44 1219.01 1342.71 1218.01 1342.38" fill="#17282F"/>
<path d="M1205.93 1295.25C1194.71 1291.32 1181.97 1293.32 1173.71 1298.2C1165.77 1302.88 1157.9 1310.47 1155.2 1320.5C1155.12 1320.79 1155.65 1320.96 1155.78 1320.68C1164.23 1302.77 1186.31 1291.51 1205.74 1295.85C1206.13 1295.93 1206.31 1295.38 1205.93 1295.25" fill="#17282F"/>
<path d="M1135.4 1227C1116.31 1220.89 1092.03 1220.87 1075.33 1232.91C1074.68 1233.38 1075.36 1234.29 1076.02 1234.17C1096.07 1230.53 1114.57 1228.9 1135.01 1229.47C1136.45 1229.51 1136.77 1227.44 1135.4 1227Z" fill="#17282F"/>
<path d="M1148.43 1237.29C1129.35 1231.17 1105.06 1231.16 1088.37 1243.2C1087.72 1243.67 1088.39 1244.58 1089.05 1244.46C1109.1 1240.81 1127.61 1239.18 1148.04 1239.75C1149.49 1239.79 1149.8 1237.73 1148.43 1237.29Z" fill="#17282F"/>
<path d="M1161.47 1247.58C1142.39 1241.46 1118.1 1241.44 1101.4 1253.49C1100.76 1253.95 1101.43 1254.87 1102.09 1254.74C1122.14 1251.1 1140.64 1249.47 1161.08 1250.04C1162.52 1250.08 1162.84 1248.02 1161.47 1247.58Z" fill="#17282F"/>
<path d="M1174.51 1257.87C1155.42 1251.75 1131.13 1251.73 1114.44 1263.77C1113.79 1264.24 1114.46 1265.15 1115.12 1265.03C1135.17 1261.39 1153.68 1259.76 1174.12 1260.33C1175.56 1260.37 1175.87 1258.31 1174.51 1257.87Z" fill="#17282F"/>
<path d="M1135.77 1215.73C1127.71 1218.53 1119.56 1220.91 1111.6 1224C1117.94 1215.49 1123.87 1206.75 1131.06 1198.88C1134.5 1195.13 1138.09 1191.34 1142.01 1188.09C1148.11 1183.03 1171.81 1172.75 1167.35 1194.19C1164.9 1206.01 1145.39 1212.41 1135.77 1215.73ZM1171.72 1182.17C1164.48 1171.16 1149.86 1175.29 1141.32 1181.82C1127.51 1192.39 1115.06 1209.33 1108.94 1225.53C1108.8 1225.93 1109.06 1226.19 1109.38 1226.26C1109.37 1227.76 1110.64 1229.41 1112.35 1228.86C1128.88 1223.58 1147.2 1219.99 1161.62 1209.8C1170.04 1203.85 1178.58 1192.58 1171.72 1182.17Z" fill="#17282F"/>
<path d="M1050.91 1203.65C1042.97 1183.24 1068.05 1189.45 1074.9 1193.43C1079.3 1195.99 1083.48 1199.13 1087.48 1202.26C1095.88 1208.83 1103.18 1216.46 1110.84 1223.8C1102.48 1222.07 1094.05 1221.08 1085.63 1219.66C1075.6 1217.97 1055.3 1214.9 1050.91 1203.65ZM1059.16 1218.1C1075.06 1225.75 1093.73 1226.26 1110.9 1228.72C1112.68 1228.98 1113.66 1227.14 1113.4 1225.66C1113.71 1225.54 1113.92 1225.24 1113.71 1224.87C1104.99 1209.91 1089.92 1195.27 1074.54 1187.13C1065.04 1182.11 1049.94 1180.46 1044.61 1192.52C1039.58 1203.92 1049.87 1213.62 1059.16 1218.1" fill="#17282F"/>
<path d="M1101.14 1170.57L906.805 1199.28C906.805 1199.28 800.756 1006.65 757.923 958.742L757.82 958.658C755.007 955.497 752.385 952.943 749.987 951.005L749.905 950.977C747.192 949.421 742.455 948.26 735.881 947.471L735.803 947.443C707.958 944.058 648.198 946.725 578.782 949.396C504.942 952.234 420.183 955.076 351.299 950.628L413.713 867.174L441.368 830.158C591.927 812.979 776.684 751.405 860.061 793.238C950.611 838.68 1101.14 1170.57 1101.14 1170.57" fill="#17282F"/>
<path d="M1076.78 1137.55C1043.75 1141.81 1053.18 1140.14 1020.19 1144.75C1004.05 1147 922.884 1158.14 908.177 1162.74C907.853 1162.85 907.931 1163.38 908.271 1163.38C923.686 1163.51 1004.59 1150.62 1020.68 1148.07C1053.58 1142.86 1044.08 1144.02 1076.92 1138.47C1077.54 1138.36 1077.4 1137.47 1076.78 1137.55" fill="#273E47"/>
<path d="M907.803 1160.03C885.811 1123.25 785.678 941.694 765.748 934.544C747.61 928.036 384.644 935.585 379.273 935.626C378.888 935.626 378.858 936.222 379.246 936.216C422.208 935.667 753.975 934.484 763.437 938.231C783.105 946.014 902.854 1156.62 905.791 1161.02C906.577 1162.19 908.558 1161.29 907.803 1160.03" fill="#273E47"/>
<path d="M249.785 874.695C249.785 874.695 238.309 984.178 293.844 1038.64C360.306 1103.81 798.901 1087.34 866.875 1065.37C934.844 1043.39 936.97 933.673 862.665 908.248C791.996 884.069 478.594 870.171 471.172 867.208C463.749 864.248 442.023 829.555 442.023 829.555L249.785 874.695" fill="#17282F"/>
<path d="M342.6 871.609C342.514 871.088 341.701 871.257 341.704 871.756C341.763 885.582 336.642 900.128 327.567 910.61C317.159 922.632 301.81 929.364 287.902 936.402C286.564 937.076 287.578 939.172 288.963 938.754C297.439 936.212 305.794 932.512 313.521 928.169C320.559 924.217 327.062 919.257 331.994 912.809C341.086 900.92 345.062 886.427 342.6 871.609Z" fill="#273E47"/>
<path d="M468.181 860.383C465.078 856.418 461.697 852.647 458.457 848.791C450.801 839.676 443.108 830.523 435.081 821.729C434.323 820.896 432.832 822.075 433.531 822.986C438.938 830.055 444.661 836.899 450.287 843.79C453.171 847.325 456.065 850.847 458.981 854.353C461.707 857.628 465.078 860.879 467.099 864.654C469.194 868.572 466.438 871.922 462.377 872.356C458.741 872.743 455.389 870.89 452.601 868.753C446.264 863.899 441.28 856.948 436.013 851.015C432.789 847.387 429.564 843.762 426.29 840.178C422.809 836.366 419.098 832.753 415.627 828.947L415.172 829.316C418.206 833.474 421.007 837.829 424.047 842C427.085 846.167 430.166 850.294 433.303 854.387C436.269 858.262 439.344 862.055 442.503 865.774C445.188 868.934 448.244 872.013 451.843 874.131C457.659 877.553 467.754 878.292 470.847 870.777C472.375 867.065 470.464 863.3 468.181 860.383" fill="#273E47"/>
<path d="M857.576 1065.78C834.174 1066.21 810.785 1067.57 787.378 1068.07C764.163 1068.57 740.943 1068.7 717.725 1068.48C671.091 1068.04 624.472 1066.26 577.944 1063.04C530.929 1059.79 480.218 1055.11 433.518 1048.64C411.174 1045.54 388.521 1042.96 366.436 1038.21C346.511 1033.92 328.44 1025.65 313.522 1011.17C283.276 981.828 271.516 938.679 266.686 897.46C266.038 891.929 265.508 886.386 265.058 880.836C265.028 880.459 264.459 880.468 264.485 880.849C267.215 923.119 273.786 967.185 300.362 1001.17C311.859 1015.87 326.492 1027.91 343.653 1034.79C364.568 1043.17 387.782 1045.14 409.864 1048.14C456.755 1054.5 507.665 1059.41 554.823 1063.07C602.284 1066.75 649.854 1069.05 697.446 1069.75C745.028 1070.45 792.664 1069.78 840.199 1067.44C846.006 1067.16 851.794 1066.82 857.588 1066.31C857.916 1066.28 857.909 1065.77 857.576 1065.78" fill="#273E47"/>
<path d="M920.056 963.465C915.593 944.903 904.419 929.346 888.717 918.621C871.874 907.113 851.722 901.879 831.776 898.975C809.214 895.693 786.358 894.018 763.671 891.812C717.108 887.289 670.517 883.112 623.895 879.275C577.304 875.441 476.947 867.645 471.302 867.427C470.813 867.405 470.71 868.241 471.209 868.294C516.184 873.295 557.106 877.587 602.175 881.683C647.462 885.798 692.737 890.112 737.99 894.585C760.537 896.816 783.084 899.074 805.621 901.402C826.503 903.56 847.989 905.688 867.583 913.758C884.389 920.68 899.498 931.814 908.068 948.17C916.348 963.97 918.094 982.849 914.782 1000.22C911.707 1016.35 904.117 1032.07 893.037 1044.23C882.122 1056.21 868.269 1065.39 852.296 1068.84C848.177 1069.72 843.202 1070.36 839.41 1071.12C839.12 1071.18 838.827 1071.79 839.117 1071.79C872.804 1072.65 903.967 1048.04 916.132 1017.26C922.834 1000.3 924.328 981.221 920.056 963.465" fill="#273E47"/>
<path d="M380.746 605.269C403.032 692.678 447.337 797.033 465.574 813.707C488.638 834.791 629.746 862.468 637.199 863.195C643.342 863.791 652.754 832.402 659.166 801.013C665.527 769.855 668.927 738.7 663.232 738.825C633.042 739.505 540.044 730.044 533.374 723.515C526.45 716.683 479.217 659.951 430.503 595.735C396.882 551.357 366.917 551.032 380.746 605.269" fill="#F57A76"/>
<path d="M625.751 857.958C627.793 858.935 656.821 872.676 674.68 877.393C688.006 880.912 726.632 890.011 731.958 875.724C735.607 865.982 713.522 857.955 698.035 851.931C689.874 848.759 679.714 840.539 681.972 835.286C685.916 826.102 706.935 834.724 720.803 842.348C747.62 857.085 783.517 883.913 799.353 870.103C805.331 864.881 798.018 855.812 787.428 846.999C804.514 857.153 822.68 865.386 829.55 859.849C833.495 856.695 833.582 852.493 831.227 847.754C836.467 849.32 841.054 848.88 844.172 845.415C849.508 839.556 846.639 831.165 840.443 822.642C842.357 822.396 844.06 821.376 845.336 819.254C856.5 801.304 797.285 751.957 777.115 747.689C717.766 735.071 655.645 739.176 655.645 739.176C632.911 758.261 625.701 857.921 625.751 857.958" fill="#F57A76"/>
<path d="M711.22 801.537C725.17 803.377 738.975 808.25 750.947 815.746C766.144 825.264 776.345 836.588 789.174 847.931C789.514 848.227 789.062 848.76 788.722 848.464C782.607 843.073 757.325 822.862 750.81 818.286C738.866 809.903 725.612 804.132 711.174 801.777L711.22 801.537Z" fill="#17282F"/>
<path d="M721.617 776.223C737.229 780.091 753.224 784 767.794 790.994C783.739 798.646 796.381 811.443 808.805 823.749C816.268 831.139 823.575 838.689 830.691 846.413C830.987 846.737 830.557 847.27 830.236 846.946C817.624 834.224 804.636 821.868 791.27 809.942C778.696 798.724 764.769 790.242 748.87 784.615C739.914 781.445 730.733 778.968 721.564 776.498L721.617 776.223" fill="#17282F"/>
<path d="M737.659 753.921C752.803 756.657 766.013 758.987 779.55 766.745C797.473 777.015 814.958 794.624 821.092 800.867C827.872 807.764 834.412 814.88 840.845 822.098C841.11 822.395 840.605 822.856 840.334 822.566C825.645 806.797 809.875 791.867 793.272 778.128C785.338 771.565 776.75 765.887 767.167 762.028C757.693 758.21 747.592 756.164 737.641 754.027L737.659 753.921" fill="#17282F"/>
<path d="M653.347 730.396L610.941 876.92C610.941 876.92 485.847 844.424 462.558 820.472C439.266 796.52 394.328 671.05 380.53 610.047C366.732 549.045 397.758 549.815 427.163 587.78C456.57 625.748 529.716 717.718 533.729 719.658C537.74 721.598 653.347 730.396 653.347 730.396Z" fill="#FABB1E"/>
<path d="M597.472 812.601C602.617 795.322 607.906 778.077 612.413 760.604C614.973 750.678 617.586 740.761 620.053 730.81C620.147 730.435 619.517 730.223 619.389 730.594C613.538 747.733 607.707 764.934 602.642 782.338C597.6 799.655 592.414 816.928 587.595 834.313C584.854 844.198 582.422 854.128 580.286 864.17L580.635 864.285C587.065 847.327 592.289 829.998 597.472 812.601" fill="#17282F"/>
<path d="M592.906 872.016C567.765 864.925 521.782 851.193 490.768 837.302C490.774 837.298 490.771 837.302 490.774 837.298C521.782 851.196 567.743 864.916 592.89 871.991C592.894 871.997 592.9 872.009 592.906 872.016Z" fill="#142228"/>
<path d="M592.891 871.992C567.743 864.917 521.782 851.197 490.775 837.3C499.319 835.172 504.399 833.765 504.73 833.351C506.991 830.487 487.16 742.825 459.078 666.502C499.329 727.789 545.224 799.351 582.166 855.69C581.518 858.51 580.891 861.336 580.286 864.172L580.635 864.287C581.518 861.96 582.378 859.629 583.217 857.29C586.52 862.325 589.744 867.226 592.891 871.992" fill="#F4AC12"/>
<path d="M580.635 864.285L580.286 864.17C580.891 861.334 581.517 858.508 582.166 855.688C582.515 856.221 582.868 856.758 583.217 857.288C582.378 859.628 581.517 861.958 580.635 864.285" fill="#142228"/>
<path d="M237.154 893.658C237.855 894.369 502.279 836.433 504.73 833.351C508.151 829.012 460.896 630.116 411.037 570.758C398.569 555.915 358.879 556.938 341.113 571.922C253.072 646.163 234.649 891.093 237.154 893.658Z" fill="#FABB1E"/>
<path d="M320.554 586.152C267.823 626.728 128.842 790.771 157.893 829.694C187.153 868.897 386.056 855.654 444.153 838.906C461.432 833.924 417.087 723.942 398.644 718.492C391.032 716.243 365.993 720.863 342.494 725.486C318.608 730.184 296.314 734.882 295.531 732.364C293.774 726.721 312.867 690.354 343.667 623.898C379.182 547.273 343.844 568.227 320.554 586.152" fill="#F57A76"/>
<path d="M479.688 705.672C518.109 706.658 527.823 712.81 560.692 696.414C582.26 685.657 598.383 694.816 583.726 715.159C559.757 748.429 509.92 757.572 491.729 755.766L479.688 705.672" fill="#F57A76"/>
<path d="M373.948 725.327C373.948 725.327 420.025 708.871 461.071 705.867C489.459 703.789 551.72 706.16 600.11 776.007C611.586 792.574 616.199 824.322 587.627 804.076C567.331 789.692 558.809 774.438 545.48 768.223C545.48 768.223 546.553 809.305 529.51 820.157C521.898 825.008 500.801 837.761 482.96 845.348C482.96 845.348 480.265 841.907 477.468 837.056C477.468 837.056 460.594 845.694 432.736 838.313L373.948 725.327" fill="#F57A76"/>
<path d="M488.479 708.213C500.405 717.182 525.359 736.607 540.244 759.605C556.781 785.147 581.751 838.806 562.775 850.823C548.863 859.632 537.528 839.982 537.528 839.982C537.528 839.982 543.175 864.34 528.867 869.549C515.829 874.294 507.97 858.569 507.97 858.569C507.97 858.569 508.856 873.932 495.418 876.085C479.252 878.674 480.047 846.05 461.407 834.52C457.222 831.931 488.479 708.213 488.479 708.213Z" fill="#F57A76"/>
<path d="M510.353 772.582C520.182 782.855 536.53 811.916 537.83 839.431C537.858 840.054 537.403 840.41 537.256 839.849C529.391 809.857 516.325 783.566 510.109 772.738L510.353 772.582Z" fill="#17282F"/>
<path d="M485.062 790.029C492.633 799.765 508.142 830.47 508.503 858.396C508.51 859.02 508.029 859.348 507.908 858.777C500.982 827.104 490.369 801.346 484.812 790.169L485.062 790.029Z" fill="#17282F"/>
<path d="M545.53 767.98C557.171 773.608 564.138 780.932 573.282 789.817C577.803 794.212 582.409 798.548 587.396 802.417C591.937 805.939 598.613 811.232 604.623 807.888C607.966 806.026 608.63 801.74 608.533 798.258C608.421 794.35 605.836 786.732 604.108 783.216L604.42 783.057C606.032 786.198 609.064 793.205 609.725 796.68C610.323 799.827 610.607 803.415 609.251 806.419C606.335 812.873 598.23 812.443 592.9 809.651C589.713 807.982 586.819 805.661 584.04 803.393C581.352 801.2 578.773 798.876 576.257 796.493C571.089 791.598 566.209 786.41 561.097 781.457C555.484 776.013 551.458 773.14 545.277 768.358L545.53 767.98" fill="#17282F"/>
<path d="M564.032 815.296C562.024 807.791 549.681 775.875 545.23 768.229L545.524 768.029C553.566 778.654 564.924 805.22 567.222 813.509C569.496 821.701 571.953 832.095 570.553 840.577C568.439 853.37 559.554 854.387 556.314 854.496C552.45 854.621 548.798 853.208 545.726 850.912C542.305 848.354 539.352 843.734 537.397 840.006L537.69 839.806C541.286 845.577 547.825 851.773 554.926 852.007C558.007 852.11 561.285 851.243 563.539 849.05C566.19 846.47 567.001 842.633 567.288 839.083C567.933 831.047 566.1 823.005 564.032 815.296" fill="#17282F"/>
<path d="M373.947 719.794L413.947 859.081C413.947 859.081 165.002 873.278 151.203 828.057C137.405 782.834 257.685 634.684 307.57 593.999C365.384 546.85 368.495 566.656 349.671 613.814C329.966 663.187 296.031 733.689 296.031 733.689L373.947 719.794" fill="#FABB1E"/>
<path d="M217.389 755.995C229.756 750.055 242.706 745.307 255.793 741.221C268.756 737.172 282.093 734.539 295.493 732.439C303.148 731.241 310.834 730.418 318.532 729.541L318.566 729.906C305.082 731.8 291.703 734.885 278.538 738.323C265.424 741.745 252.394 745.395 239.416 749.297C232.074 751.503 224.839 754.058 217.578 756.51C217.238 756.625 217.075 756.145 217.389 755.995" fill="#17282F"/>
<path d="M373.365 719.312C372.104 719.427 302.88 730.242 300.561 730.888C300.998 729.946 318.549 696.979 321.158 692.159C321.417 691.679 321.654 691.189 321.909 690.709C323.482 688.625 325.068 686.553 326.559 684.41C328.47 681.659 330.362 678.895 332.257 676.137L332.13 676.038C330.114 678.702 328.094 681.363 326.094 684.042C325.168 685.281 324.284 686.547 323.407 687.817C325.16 684.395 326.867 680.96 328.578 677.507C331.303 671.998 333.849 666.423 336.38 660.827L336.1 660.705C330.931 670.313 325.464 679.75 320.268 689.339C315.083 698.913 295.369 734.17 295.479 734.157C295.582 734.273 371.998 720.603 373.487 720.251C374.07 720.113 373.985 719.255 373.365 719.312" fill="#17282F"/>
<path d="M363.86 804.281C359.489 788.749 355.24 773.179 350.292 757.81C347.481 749.078 344.717 740.325 341.823 731.618C341.713 731.29 341.136 731.431 341.219 731.771C344.988 747.534 348.806 763.334 353.297 778.919C357.764 794.43 362.102 809.974 366.771 825.429C369.427 834.216 372.336 842.889 375.524 851.508L375.842 851.427C372.597 835.523 368.261 819.919 363.86 804.281" fill="#17282F"/>
<path d="M416.71 861.616C414.963 857.245 412.877 851.012 410.95 846.714C410.441 845.581 409.618 845.662 409.983 846.826C411.215 850.738 412.06 855.049 413.257 859.051C409.777 859.164 406.294 859.201 402.81 859.351C398.784 859.522 394.758 859.713 390.732 859.872C382.849 860.181 374.961 860.411 367.071 860.558C351.093 860.858 335.11 860.82 319.135 860.44C287.111 859.681 255.033 857.754 223.252 853.676C214.362 852.538 205.486 851.224 196.665 849.64C187.707 848.03 178.035 846.233 170.763 844.065L170.647 844.48C178.087 847.338 185.092 849.502 192.869 851.184C200.806 852.903 208.797 854.403 216.822 855.639C232.808 858.097 248.921 859.703 265.049 860.873C297.028 863.194 329.124 864.124 361.182 863.777C370.166 863.684 379.149 863.481 388.128 863.172C392.659 863.016 397.191 862.86 401.719 862.617C406.247 862.377 417.009 862.361 416.71 861.616" fill="#17282F"/>
<path d="M433.97 879.944V892.797H752.5V879.944H433.97Z" fill="#33535F"/>
<path d="M433.97 879.944V892.797H610.223V879.944H433.97" fill="#999B9B"/>
<path d="M604.875 892.785H884.046L923.492 703.121H644.322L604.875 892.785" fill="#999B9B"/>
<path d="M617.533 892.785H896.704L936.15 703.121H656.979L617.533 892.785" fill="#BEBFBD"/>
<path d="M758.235 802.192C757.156 812.47 764.61 820.803 774.885 820.803C785.161 820.803 794.37 812.47 795.449 802.192C796.528 791.91 789.074 783.577 778.799 783.577C768.52 783.577 759.314 791.91 758.235 802.192Z" fill="#E7E8E5"/>
<path d="M391.019 634.375C391.019 634.375 344.46 588.059 314.039 588.855L288.043 611.562C288.043 611.562 279.545 614.273 276.969 608.879C270.596 595.543 269.567 563.402 297.364 542.773C322.819 523.887 364.233 525.641 398.719 535.037C431.834 544.058 460.45 566.329 450.087 587.9C439.727 609.469 391.019 634.375 391.019 634.375Z" fill="#FABB1E"/>
<path d="M314.259 624.227H440.85V537.5H314.259V624.227Z" fill="#F4AC12"/>
<path d="M394.431 624.224C394.431 624.224 357.321 560.193 310.377 553.504L314.039 588.855C314.039 588.855 342.075 589.154 391.019 634.375L394.431 624.224" fill="#FABB1E"/>
<path d="M301.365 589.4C309.977 588.402 318.508 590.377 326.56 592.991C334.664 595.639 342.297 599.539 349.57 603.956C356.915 608.28 363.763 613.405 370.485 618.665L380.242 626.991L389.622 635.772L390.676 636.758L391.864 636.159C400.73 631.71 409.181 626.679 417.321 621.092C421.372 618.287 425.385 615.411 429.081 612.129C432.789 608.885 436.384 605.472 439.387 601.579C432.374 608.461 424.175 613.789 415.905 618.895C411.751 621.432 407.482 623.777 403.175 626.042C398.878 628.301 394.54 630.575 390.174 632.593L392.413 632.983L383.022 623.921C379.773 621.023 376.447 618.2 373.115 615.395C369.624 612.778 366.183 610.089 362.595 607.603C358.916 605.241 355.325 602.752 351.436 600.727C343.862 596.357 335.688 592.988 327.246 590.685C325.15 590.071 322.983 589.684 320.847 589.238C318.675 588.948 316.515 588.602 314.332 588.483C309.994 588.156 305.553 588.259 301.365 589.4" fill="#17282F"/>
<path d="M288.043 611.564C292.917 608.401 297.375 604.761 301.737 601.008C306.045 597.196 310.251 593.268 314.04 588.857C309.161 592.017 304.703 595.658 300.345 599.414C296.04 603.232 291.834 607.16 288.043 611.564Z" fill="#17282F"/>
<path d="M375.409 612.704C375.409 612.704 371.495 630.891 370.93 657.204C370.707 667.621 374.701 704.98 386.275 703.632C397.849 702.288 379.005 678.171 375.702 658.465C372.349 638.462 377.667 624.334 378.373 612.536L375.409 612.704Z" fill="#FABB1E"/>
<path d="M385.67 703.67C374.856 703.664 370.919 669.321 370.922 658.065C370.922 657.763 370.925 657.473 370.93 657.204C371.495 630.891 375.409 612.704 375.409 612.704L378.373 612.536C378.245 614.676 377.965 616.891 377.613 619.205C377.374 620.778 377.1 622.397 376.819 624.069C375.771 630.286 374.604 637.224 374.603 645.219C374.602 649.34 374.91 653.739 375.702 658.465C378.244 673.629 389.987 691.404 389.993 699.406C389.993 701.804 388.942 703.324 386.275 703.633C386.071 703.657 385.87 703.67 385.67 703.67" fill="#F4AC12"/>
<path d="M416.466 614.773C416.466 614.773 421.861 634.454 425.07 658.103C426.343 667.465 426.577 701.537 416.011 701.512C405.446 701.49 419.947 677.822 420.901 659.729C421.871 641.361 415.628 625.482 413.781 614.923L416.466 614.773Z" fill="#FABB1E"/>
<path d="M416.024 701.512C416.017 701.512 416.014 701.512 416.011 701.512C413.214 701.505 412.175 699.843 412.172 697.066C412.172 689.352 420.199 673.034 420.901 659.729C420.97 658.437 421.001 657.158 421.004 655.892C421.01 642.989 417.732 631.463 415.447 622.363C415.206 621.412 414.976 620.482 414.764 619.583C414.374 617.933 414.034 616.38 413.781 614.923L416.466 614.773C416.466 614.773 421.861 634.454 425.07 658.103C425.413 660.624 425.682 664.941 425.682 669.901C425.685 683.344 423.733 701.512 416.024 701.512" fill="#F4AC12"/>
<path d="M398.332 617.037C386.252 616.251 363.743 591.023 356.08 571.002C355.563 569.626 359.351 556.431 363.197 540.175C365.491 530.302 367.814 519.255 369.206 509.023L431.251 533.346C431.251 533.346 422.027 553.941 419.71 571.798C419.532 573.292 419.491 574.699 419.579 576.056L419.575 576.764C419.791 584.918 417.252 618.269 398.332 617.037" fill="#F57A76"/>
<path d="M419.569 576.063C419.566 576.263 419.61 576.478 419.582 576.771C417.514 576.78 415.34 576.606 412.924 576.219C376.56 570.423 373.681 524.741 373.695 510.781L431.276 533.338C431.276 533.338 422.048 553.933 419.685 571.808C419.547 573.284 419.482 574.678 419.569 576.063" fill="#17282F"/>
<path d="M381.831 428.961C368.83 449.147 362.415 516.295 374.097 534.981C391.032 562.071 427.768 574.615 453.05 552.188C477.558 530.455 484.372 442.802 470.486 424.893C450.028 398.514 401.036 399.138 381.831 428.961" fill="#F57A76"/>
<path d="M423.72 477.939C425.763 477.692 427.609 477.125 429.605 476.672C431.856 476.161 433.706 475.986 435.361 474.236C436.247 473.294 436.169 471.397 435.34 470.449C433.403 468.237 430.49 468.178 427.752 468.68C424.783 469.229 422.635 470.408 420.679 472.707C418.787 474.932 421.022 478.263 423.72 477.939Z" fill="#17282F"/>
<path d="M469.207 484.148C467.233 483.565 465.508 482.695 463.618 481.912C461.482 481.029 459.692 480.548 458.351 478.542C457.634 477.469 458.03 475.61 459.006 474.815C461.286 472.959 464.17 473.392 466.784 474.347C469.618 475.386 471.539 476.908 473.08 479.5C474.574 482.015 471.811 484.922 469.207 484.148" fill="#17282F"/>
<path d="M420.243 530.73C421.188 531.921 422.08 533.512 423.698 533.859C425.248 534.189 427.175 533.715 428.685 533.341L428.85 533.597C427.459 535.178 424.861 535.949 422.819 535.316C420.826 534.698 420.04 532.807 419.784 530.876L420.243 530.73" fill="#17282F"/>
<path d="M426.698 517.839C428.722 522.073 432.156 524.68 436.066 525.972C437.81 526.558 439.687 526.861 441.552 526.927C441.917 526.964 442.285 526.97 442.621 526.939C442.955 526.942 443.258 526.942 443.629 526.914C444.165 526.905 444.508 526.509 444.661 526.022L444.664 525.988L444.68 525.52L444.686 525.488L444.726 525.092C445.266 521.633 445.6 516.314 445.6 516.314C446.788 517.109 452.878 520.843 453.006 519.015C454.023 503.895 455.152 487.078 452.969 471.814C452.922 471.308 452.152 471.327 452.133 471.826C450.58 486.32 451.59 500.991 450.262 515.575C448.3 514.526 445.122 512.648 443.301 512.452C442.793 512.533 442.837 522.746 442.472 524.278L442.422 524.44C436.5 524.443 432.33 522.122 427.169 517.487C426.87 517.187 426.474 517.446 426.698 517.839" fill="#17282F"/>
<path d="M439.731 524.91C439.731 524.91 436.126 528.669 431.725 529.63C430.104 529.989 428.404 529.998 426.711 529.306C423.234 527.902 423.564 524.589 424.587 521.847C425.416 519.591 426.748 517.726 426.748 517.726C426.748 517.726 431.376 523.313 439.731 524.91" fill="#17282F"/>
<path d="M431.725 529.63C430.104 529.989 428.404 529.998 426.711 529.306C423.234 527.902 423.564 524.589 424.587 521.847C428.392 522.733 431.875 525.837 431.725 529.63" fill="#F578BA"/>
<path d="M432.561 490.223L432.155 490.563C431.588 495.039 430.185 500.074 425.922 500.913L425.918 501.169C430.945 501.259 432.742 494.556 432.561 490.223Z" fill="#17282F"/>
<path d="M429.324 484.935C422.245 483.25 419.398 497.537 425.956 499.097C432.411 500.635 435.255 486.348 429.324 484.935Z" fill="#17282F"/>
<path d="M458.647 493.644L458.906 494.106C457.852 498.495 457.381 503.701 461.074 505.997L460.983 506.234C456.249 504.537 456.945 497.634 458.647 493.644Z" fill="#17282F"/>
<path d="M463.55 489.847C470.766 490.78 468.368 505.152 461.682 504.285C455.102 503.433 457.5 489.064 463.55 489.847Z" fill="#17282F"/>
<path d="M388.231 472.203C397.456 460.676 397.902 435.941 406.602 432.422C425.435 424.804 445.628 459.84 465.546 467.205C484.849 474.339 495.83 464.245 498.028 447.271C500.227 430.301 490.718 414.912 470.183 403.791C448.939 392.286 425.183 393.915 411.467 397.012C411.467 397.012 419.192 390.942 418.25 387.844C417.305 384.746 405.096 388.846 401.036 391.007C396.913 393.203 392.921 398.616 392.921 398.616C392.921 398.616 389.772 396.286 384.417 394.498C379.453 392.839 371.857 394.445 371.087 395.475C370.317 396.504 377.033 399.957 381.878 401.997C381.878 401.997 368.243 410.885 364.648 421.42C361.053 431.954 359.31 487.56 363.027 489.516C367.8 492.027 384.482 476.885 388.231 472.203" fill="#33535F"/>
<path d="M384.252 401.424L384.39 401.793C378.21 404.151 372.679 407.504 368.562 412.798C363.774 418.953 361.52 426.646 360.533 434.279C358.612 449.135 360.803 464.033 362.042 478.836C362.078 479.269 361.345 479.344 361.282 478.914C358.965 463.319 356.939 446.558 359.613 430.898C361.895 417.546 370.022 404.188 384.252 401.424" fill="#33535F"/>
<path d="M407.678 427.064C413.644 428.331 419.769 431.164 424.812 434.579C429.776 437.945 433.222 443.049 437.152 447.488C445.977 457.449 456.352 466.452 469.335 470.279L469.257 470.535C457.119 467.781 447.019 460.206 438.574 451.331C434.314 446.855 430.749 441.364 425.975 437.431C420.548 432.96 413.812 430.618 407.351 428.125C406.677 427.866 406.98 426.915 407.678 427.064" fill="#33535F"/>
<path d="M425.385 395.841C434.607 394.687 444.022 395.148 453.181 396.643C461.969 398.075 470.707 400.486 478.522 404.853C492.003 412.39 501.876 426.303 499.893 442.247C498.892 450.324 495.14 458.235 488.869 463.538C488.448 463.897 487.902 463.301 488.289 462.905C498.855 452.152 502.213 435.684 494.723 422.214C486.677 407.748 470.451 400.973 454.936 397.993C445.169 396.119 435.315 395.754 425.395 395.953L425.385 395.841" fill="#33535F"/>
<path d="M380.735 484.853C380.735 484.853 371.658 460.296 360.887 463.007C350.116 465.718 353.154 498.663 363.133 505.676C373.109 512.685 379.778 503.573 379.778 503.573L380.735 484.853" fill="#F57A76"/>
<path d="M361.992 472.432L361.857 472.713C368.786 477.882 370.986 486.139 371.891 494.341C370.338 490.868 367.61 488.476 363.051 490.213L363.152 490.681C366.506 490.834 368.652 491.982 370.131 495.089C371.178 497.289 371.619 499.837 372.165 502.202C372.345 502.991 373.694 502.947 373.639 502.08L373.622 501.884C376.406 492.048 372.342 476.204 361.992 472.432" fill="#17282F"/>
</svg>
